<svg width="71.916px" height="71.916px" viewBox="0 -6.41 71.916 71.916" xmlns="http://www.w3.org/2000/svg">
  <g id="raining" transform="translate(-668.319 -1199.608)">
    <path id="Path_43" data-name="Path 43" d="M698.662,1258.71a3.385,3.385,0,0,1-3.371-3.363,3.359,3.359,0,0,1,.99-2.383,3.42,3.42,0,0,1,1.341-.82l.5-.127,5.3-1.436-1.434,5.309-.165.615a3.153,3.153,0,0,1-.782,1.209,3.336,3.336,0,0,1-2.384,1Zm20.536-3.072a6.451,6.451,0,0,1-4.57-11.008,6.616,6.616,0,0,1,2.562-1.565l.873-.224,10.247-2.748-2.761,10.224-.264,1.008a6.423,6.423,0,0,1-6.087,4.313Zm-36.179-2.348a6.444,6.444,0,0,1-2-12.574l.866-.229,10.26-2.75-2.765,10.229-.266.988a6.679,6.679,0,0,1-1.528,2.445,6.4,6.4,0,0,1-4.566,1.891Z" fill="#27b7ff"/>
    <path id="Path_44" data-name="Path 44" d="M726.962,1216.042a19.076,19.076,0,0,0-18.667-16.422c-.048,0-.129-.012-.231-.012A19.071,19.071,0,0,0,690,1212.573a14.788,14.788,0,0,0-10.189,8.637,12.138,12.138,0,0,0-6,22.279,9.749,9.749,0,0,1,6.156-5.957l.04-.011.051-.014.957-.256,11.359-3.051a2.985,2.985,0,0,1,.812-.109,2.531,2.531,0,0,1,2.582,2.594,3.166,3.166,0,0,1-.109.795L693.5,1245.5H710.11a9.781,9.781,0,0,1,6.032-5.621l.05-.01.046-.017.959-.258,11.357-3.049a3.084,3.084,0,0,1,.807-.109,2.539,2.539,0,0,1,2.584,2.6,2.809,2.809,0,0,1-.114.795l-1.269,4.719a14.738,14.738,0,0,0-3.6-28.506Z" fill="#f4f4f4"/>
  </g>
</svg>
